<?xml version="1.0" encoding="UTF-8"?>
<svg width="70px" height="80px" viewBox="0 0 70 80" version="1.1" xmlns="http://www.w3.org/2000/svg" xmlns:xlink="http://www.w3.org/1999/xlink">
    <!-- Generator: Sketch 51.3 (57544) - http://www.bohemiancoding.com/sketch -->
    <title>settings copy 5</title>
    <desc>Created with Sketch.</desc>
    <defs>
        <rect id="path-1" x="0" y="0" width="80" height="80"></rect>
    </defs>
    <g id="Page-1" stroke="none" stroke-width="1" fill="none" fill-rule="evenodd">
        <g id="settings-copy-5" transform="translate(-5.000000, 0.000000)">
            <mask id="mask-2" fill="white">
                <use xlink:href="#path-1"></use>
            </mask>
            <g id="Mask" fill-rule="nonzero"></g>
            <g id="sms" mask="url(#mask-2)">
                <g transform="translate(-98.000000, 0.000000)" id="Group">
                    <g transform="translate(103.000000, 0.000000)">
                        <path d="M21.3542187,76 C18.40875,76 16.0209375,73.6121875 16.0209375,70.6667188 C16.0209375,67.72125 18.40875,65.3334375 21.3542187,65.3334375 C24.2996875,65.3334375 26.6875,67.72125 26.6875,70.6667188 C26.684375,73.6109375 24.2984375,75.996875 21.3542187,76 Z M21.3542188,68 C19.8814063,68 18.6875,69.1939062 18.6875,70.6667188 C18.6875,72.1395313 19.8814062,73.3334375 21.3542188,73.3334375 C22.8270312,73.3334375 24.0209375,72.1395313 24.0209375,70.6667188 C24.0192188,69.1945313 22.82625,68.0017188 21.3542188,68 Z" id="Shape" fill="#FFFFFF" fill-rule="nonzero"></path>
                        <path d="M44.0207813,64 L1.35421875,64 C0.6178125,64 0.0209375,63.4029687 0.0209375,62.6667188 C0.0209375,61.9304688 0.61796875,61.3334375 1.35421875,61.3334375 L44.0209375,61.3334375 C44.7573438,61.3334375 45.3542188,61.9303125 45.3542188,62.6667188 C45.3542188,63.403125 44.7571875,64 44.0207813,64 Z" id="Shape" fill="#FFFFFF" fill-rule="nonzero"></path>
                        <path d="M44.0207813,10.6667187 L1.35421875,10.6667187 C0.6178125,10.6667187 0.0209375,10.0696875 0.0209375,9.3334375 C0.0209375,8.5971875 0.61796875,8.00015625 1.35421875,8.00015625 L44.0209375,8.00015625 C44.7573438,8.00015625 45.3542188,8.5971875 45.3542188,9.3334375 C45.3542188,10.0696875 44.7571875,10.6667187 44.0207813,10.6667187 Z" id="Shape" fill="#FFFFFF" fill-rule="nonzero"></path>
                        <path d="M22.6875,6.66671875 L17.3542187,6.66671875 C16.6178125,6.66671875 16.0209375,6.0696875 16.0209375,5.3334375 C16.0209375,4.5971875 16.6179687,4.00015625 17.3542187,4.00015625 L22.6875,4.00015625 C23.4239062,4.00015625 24.0207812,4.5971875 24.0207812,5.3334375 C24.0207812,6.0696875 23.4239063,6.66671875 22.6875,6.66671875 Z" id="Shape" fill="#FFFFFF" fill-rule="nonzero"></path>
                        <path d="M28.0207812,6.66671875 L26.6875,6.66671875 C25.9510937,6.66671875 25.3542188,6.0696875 25.3542188,5.3334375 C25.3542188,4.5971875 25.95125,4.00015625 26.6875,4.00015625 L28.0207812,4.00015625 C28.7571875,4.00015625 29.3540625,4.5971875 29.3540625,5.3334375 C29.3540625,6.0696875 28.7571875,6.66671875 28.0207812,6.66671875 Z" id="Shape" fill="#FFFFFF" fill-rule="nonzero"></path>
                        <rect id="Rectangle-3" fill="#F8172F" fill-rule="nonzero" x="21" y="18" width="46" height="24"></rect>
                        <path d="M39.4804688,80 L5.89453125,80 C2.6521875,79.99625 0.0246875,77.36875 0.02078125,74.12625 L0.02078125,5.87375 C0.0246875,2.63125 2.6521875,0.00375 5.89453125,0 L39.4804688,0 C42.7228125,0.00375 45.3503125,2.63125 45.3542187,5.87375 L45.3545313,74.1265625 C45.3504687,77.36875 42.7228125,79.99625 39.4804688,80 Z M5.89453125,2.66671875 C4.12421875,2.66875 2.68953125,4.1034375 2.6875,5.87375 L2.6875,74.1264063 C2.68953125,75.8967188 4.12421875,77.3314063 5.89453125,77.3334375 L39.4804687,77.3334375 C41.2507812,77.3314063 42.6854687,75.8967188 42.6875,74.1264063 L42.6875,44 L42.6875,15.9998438 L42.6875,5.87375 C42.6854688,4.1034375 41.2507813,2.66875 39.4804688,2.66671875 L5.89453125,2.66671875 Z" id="Shape" fill="#FFFFFF" fill-rule="nonzero"></path>
                        <g id="Group-4" transform="translate(18.000000, 16.000000)" fill="#FFFFFF" fill-rule="nonzero">
                            <path d="M7.35421875,36 C7.000625,36.0001562 6.66140625,35.8596875 6.41125,35.6095312 C6.16125,35.3595312 6.02078125,35.0203125 6.02078125,34.6665625 L6.02078125,28 L2.02078125,28 C1.6671875,28.0001562 1.32796875,27.8596875 1.0778125,27.6095312 C0.8278125,27.3595312 0.68734375,27.0203125 0.68734375,26.6665625 L0.68734375,1.33328125 C0.6871875,0.9796875 0.82765625,0.64046875 1.0778125,0.3903125 C1.3278125,0.1403125 1.66703125,-0.00015625 2.02078125,-0.00015625 L50.0207813,-0.00015625 C50.374375,-0.0003125 50.7135938,0.14015625 50.96375,0.3903125 C51.2139063,0.64046875 51.3542188,0.97953125 51.3542188,1.33328125 L51.3542188,26.6665625 C51.354375,27.0201562 51.2139063,27.359375 50.96375,27.6095313 C50.71375,27.8595313 50.3745313,28 50.0207813,28 L18.4654688,28 L8.15421875,35.733125 C7.92359375,35.9065625 7.6428125,36.0001562 7.35421875,36 Z M3.35421875,25.3332812 L7.35421875,25.3332812 C7.7078125,25.333125 8.04703125,25.4735938 8.2971875,25.72375 C8.5471875,25.97375 8.68765625,26.3129688 8.68765625,26.6667188 L8.68765625,32 L17.2209375,25.6003125 C17.4517187,25.4271875 17.7325,25.3334375 18.0210937,25.3334375 L48.6875,25.3334375 L48.6875,2.66671875 L3.35421875,2.66671875 L3.35421875,25.3332812 Z" id="Shape"></path>
                            <path d="M23.3542187,12 L10.0209375,12 C9.28453125,12 8.68765625,11.4029687 8.68765625,10.6667187 C8.68765625,9.9303125 9.2846875,9.3334375 10.0209375,9.3334375 L23.3542187,9.3334375 C24.090625,9.3334375 24.6875,9.93046875 24.6875,10.6667187 C24.6875,11.403125 24.090625,12 23.3542187,12 Z" id="Shape"></path>
                            <path d="M42.0207812,18.6667188 L10.0207812,18.6667188 C9.284375,18.6667188 8.6875,18.0696875 8.6875,17.3334375 C8.6875,16.5971875 9.28453125,16.0001563 10.0207812,16.0001563 L42.0207812,16.0001563 C42.7571875,16.0001563 43.3540625,16.5970313 43.3540625,17.3334375 C43.3540625,18.0698438 42.7571875,18.6667188 42.0207812,18.6667188 Z" id="Shape"></path>
                        </g>
                    </g>
                </g>
            </g>
        </g>
    </g>
</svg>