<?xml version="1.0" encoding="UTF-8"?>
<svg width="79px" height="80px" viewBox="0 0 79 80" version="1.1" xmlns="http://www.w3.org/2000/svg" xmlns:xlink="http://www.w3.org/1999/xlink">
    <!-- Generator: Sketch 51.3 (57544) - http://www.bohemiancoding.com/sketch -->
    <title>settings copy 4</title>
    <desc>Created with Sketch.</desc>
    <defs>
        <rect id="path-1" x="0" y="0" width="80" height="80"></rect>
    </defs>
    <g id="Page-1" stroke="none" stroke-width="1" fill="none" fill-rule="evenodd">
        <g id="settings-copy-4" transform="translate(-1.000000, 0.000000)">
            <mask id="mask-2" fill="white">
                <use xlink:href="#path-1"></use>
            </mask>
            <g id="Mask" fill-rule="nonzero"></g>
            <g id="courier" mask="url(#mask-2)">
                <g transform="translate(1.000000, 0.000000)" id="Group">
                    <g>
                        <path d="M2.66129032,68.3908771 L2.66255032,77.4193548 C2.66255032,78.1313003 2.08606355,78.7096774 1.37222774,78.7096774 C0.660282258,78.7096774 0.0819051613,78.1331905 0.0819051613,77.4193548 L0.0806451613,68.3908771 C0.0806451613,61.9858871 5.29107871,56.7754535 11.6960685,56.7754535 L19.4354839,56.7765336 L19.4354839,50.6722531 C19.4354839,49.9584174 20.0119708,49.3819305 20.7258065,49.3819305 C21.4396421,49.3819305 22.016129,49.9584174 22.016129,50.6722531 L22.016129,57.2698274 L26.4635837,59.4902974 C27.1011845,59.8078377 27.3607611,60.5834174 27.0419606,61.2203881 C26.8164063,61.6733871 26.3596271,61.9342239 25.8858368,61.9342239 C25.6924144,61.9342239 25.4945816,61.890121 25.31187,61.7987652 L20.4218095,59.3573164 L11.6960685,59.3560987 C6.71433968,59.3560987 2.66129032,63.4091482 2.66129032,68.3908771 Z" id="Combined-Shape" fill="#FFFFFF" fill-rule="nonzero"></path>
                        <path d="M39.0940863,59.3561729 L34.204259,61.797505 C34.0215474,61.890121 33.8224547,61.9342239 33.6302923,61.9342239 C33.1565019,61.9342239 32.6997227,61.6733871 32.4741684,61.2191281 C32.1553679,60.5821573 32.4149445,59.8065776 33.0525453,59.4890373 L37.5,57.2685674 L37.5,50.6722531 C37.5,49.9584174 38.0764869,49.3819305 38.7903226,49.3819305 C39.5041582,49.3819305 40.0806452,49.9584174 40.0806452,50.6722531 L40.0806452,56.7757686 L43.9516129,56.7767137 C44.6654485,56.7767137 45.2419355,57.3550906 45.2419355,58.0670363 C45.2419355,58.7808719 44.6635584,59.3573589 43.9516129,59.3573589 L39.0940863,59.3561729 Z" id="Combined-Shape" fill="#FFFFFF" fill-rule="nonzero"></path>
                        <path d="M2.12618879,79.9439754 C0.959569742,79.6965277 0.0819051613,78.6587509 0.0819051613,77.4193548 C0.0819051613,76.7055192 0.659022258,76.1290323 1.37222774,76.1290323 C2.08606355,76.1290323 2.66255032,76.7055192 2.66255032,77.4193548 L44.0157901,77.4193548 C44.6055891,77.4193548 45.0819052,77.9958418 45.0819052,78.7096774 C45.0819052,79.4235131 44.6055891,80 44.0157901,80 L2.43834283,80 C2.32970915,80 2.2248968,79.9804081 2.12618879,79.9439754 Z" id="Combined-Shape" fill="#FFFFFF" fill-rule="nonzero"></path>
                        <path d="M52.9755025,26.9486448 C52.9810309,26.9972434 52.983871,27.0466705 52.983871,27.0967742 C52.983871,27.8106098 52.407384,28.3870968 51.6935484,28.3870968 L50.4032258,28.3870968 L50.4032258,33.5496471 C50.4032258,44.9332158 41.1410031,54.1948084 29.7580645,54.1948084 C18.375126,54.1948084 9.11290323,44.9332158 9.11290323,33.5496471 L9.11290323,28.3870968 L7.82258065,28.3870968 C7.108745,28.3870968 6.53225806,27.8106098 6.53225806,27.0967742 C6.53225806,26.7285569 6.68564955,26.3968854 6.93216007,26.162032 C7.59734486,25.4915781 12.9924398,20.6464213 29.7580645,20.6464213 C46.5236892,20.6464213 51.9187842,25.4915781 52.583969,26.162032 C52.7913155,26.3595734 52.9327808,26.625613 52.9724975,26.9242832 C52.9735909,26.932409 52.9746068,26.9405427 52.9755452,26.9486829 Z M46.9212793,25.8064516 C43.7804202,24.5557724 38.4069801,23.2258065 29.7580645,23.2258065 C21.1137276,23.2258065 15.741755,24.5543646 12.5985429,25.8064516 L46.9212793,25.8064516 Z M11.6935484,28.3870968 L11.6935484,33.5496471 C11.6935484,43.5112147 19.7964969,51.6141632 29.7580645,51.6141632 C39.7196321,51.6141632 47.8225806,43.5112147 47.8225806,33.5496471 L47.8225806,28.3870968 L11.6935484,28.3870968 Z" id="Combined-Shape" fill="#FFFFFF" fill-rule="nonzero"></path>
                        <path d="M11.6935484,21.9354839 L11.6935484,25.3666835 C11.6935484,26.079889 11.1170615,26.6570061 10.4032258,26.6570061 C9.68939016,26.6570061 9.11290323,26.079889 9.11290323,25.3666835 L9.11290323,21.9354839 C9.11290323,10.9858573 17.6833815,1.99856184 28.4677419,1.33019376 L28.4677419,1.29032258 C28.4677419,0.576486935 29.0442289,3.64153152e-14 29.7580645,3.64153152e-14 C30.4719002,3.64153152e-14 31.0483871,0.576486935 31.0483871,1.29032258 L31.0483871,1.33019376 C41.8327475,1.99856184 50.4032258,10.9858573 50.4032258,21.9354839 L50.4032258,25.3666835 C50.4032258,26.079889 49.8267389,26.6570061 49.1129032,26.6570061 C48.3990676,26.6570061 47.8225806,26.079889 47.8225806,25.3666835 L47.8225806,21.9354839 C47.8225806,11.9739163 39.7196321,3.87096774 29.7580645,3.87096774 C19.7964969,3.87096774 11.6935484,11.9739163 11.6935484,21.9354839 Z" id="Combined-Shape" fill="#FFFFFF" fill-rule="nonzero"></path>
                        <path d="M29.7580645,18.0645161 C26.9115423,18.0645161 24.5967742,15.7497481 24.5967742,12.9032258 C24.5967742,10.0567035 26.9115423,7.74193548 29.7580645,7.74193548 C32.6045868,7.74193548 34.9193548,10.0567035 34.9193548,12.9032258 C34.9193548,15.7497481 32.6045868,18.0645161 29.7580645,18.0645161 Z M29.7580645,10.3225806 C28.3348034,10.3225806 27.1774194,11.4799647 27.1774194,12.9032258 C27.1774194,14.3264869 28.3348034,15.483871 29.7580645,15.483871 C31.1813256,15.483871 32.3387097,14.3264869 32.3387097,12.9032258 C32.3387097,11.4799647 31.1813256,10.3225806 29.7580645,10.3225806 Z" id="Shape" fill="#FFFFFF" fill-rule="nonzero"></path>
                        <path d="M29.779338,58.0670548 C29.9076078,58.0686706 30.0376748,58.0894618 30.1657006,58.1313003 L34.0366684,59.4178427 C34.7127016,59.6440273 35.0793852,60.3729839 34.8550906,61.0502773 C34.6742692,61.5908518 34.1696068,61.9342239 33.6290323,61.9342239 C33.4948337,61.9342239 33.3568548,61.9121724 33.2226563,61.8686997 L29.7586946,60.7174285 L26.2947329,61.8686997 C26.1592742,61.9121724 26.0212953,61.9342239 25.8870968,61.9342239 C25.3465223,61.9342239 24.8418598,61.5908518 24.6622984,61.0502773 C24.438004,60.3742439 24.8034274,59.6440273 25.4807208,59.4178427 L29.3516885,58.1313003 C29.4935719,58.0850197 29.6378418,58.0644374 29.779338,58.0670548 Z" id="Combined-Shape" fill="#FFFFFF" fill-rule="nonzero"></path>
                        <path d="M29.7964969,67.0955142 C29.0832913,67.0955142 28.499874,66.5183971 28.499874,65.8051916 C28.499874,65.0913558 29.0700605,64.514869 29.7826361,64.514869 L29.7964969,64.514869 C30.5090726,64.514869 31.0868195,65.0913558 31.0868195,65.8051916 C31.0868195,66.5183971 30.5090726,67.0955142 29.7964969,67.0955142 Z" id="Shape" fill="#FFFFFF" fill-rule="nonzero"></path>
                        <path d="M58.6123744,65.8170273 C58.3790232,65.5835973 58.2349015,65.2610166 58.2349015,64.9044139 L58.2349015,59.5806452 L49.0736112,59.5806452 L49.0736112,77.6426411 L76.1703854,77.6426411 L76.1703854,59.5806452 L67.2671596,59.5806452 L67.2671596,64.9044139 C67.2671596,65.2610166 67.1230378,65.5835973 66.8896866,65.8170273 C66.6563355,66.0504572 66.3337548,66.1947365 65.976837,66.1947365 L59.5252241,66.1947365 C59.1683063,66.1947365 58.8457256,66.0504572 58.6123744,65.8170273 Z M60.8155467,63.6140913 L64.6865144,63.6140913 L64.6865144,59.5806452 L60.8155467,59.5806452 L60.8155467,63.6140913 Z M64.2830002,57 L63.678901,54.5818333 L61.8196691,54.5818333 L61.205303,57 L64.2830002,57 Z M66.9429162,57 L74.9518168,57 L73.1395191,54.5818333 L66.3388169,54.5818333 L66.9429162,57 Z M64.7447622,52.0011881 L73.7187725,52.0011881 C73.7214129,52.0011881 73.7240515,52.001196 73.7266882,52.0012117 C74.137882,51.9833763 74.5502578,52.1627677 74.8143867,52.5168962 L78.6853545,57.6819667 C79.0139884,58.1188564 79.0223257,58.6966173 78.7510305,59.1345827 L78.7510305,78.9329637 C78.7510305,79.6467994 78.1745436,80.2232863 77.460708,80.2232863 L47.7832886,80.2232863 C47.069453,80.2232863 46.492966,79.6467994 46.492966,78.9329637 L46.492966,58.2903226 C46.492966,58.2813244 46.4930578,58.2723479 46.4932404,58.2633939 C46.4873372,57.9766208 46.5766145,57.6862144 46.7674572,57.4431497 L50.638425,52.4960731 C50.9078996,52.1494945 51.3215466,51.978137 51.7307505,52.0022327 C51.7481753,52.0015385 51.7656902,52.0011881 51.7832886,52.0011881 L64.6348575,52.0011881 C64.6716886,51.9995955 64.7083509,51.9996125 64.7447622,52.0011881 Z M58.5426927,57 L59.1570588,54.5818333 L52.2819281,54.5818333 L50.3897712,57 L58.5426927,57 Z" id="Combined-Shape" fill="#FFFFFF" fill-rule="nonzero"></path>
                    </g>
                </g>
            </g>
        </g>
    </g>
</svg>